<svg width="72" height="72" viewBox="0 0 72 72" fill="none" xmlns="http://www.w3.org/2000/svg">
    <path
        d="M69.8087 40.71C62.2447 29.128 63.0487 17.2561 59.4027 11.6741C55.7567 6.09205 44.8907 -3.53195 19.2167 13.2381C-6.45731 30.0081 0.0726936 48.238 4.08469 54.376C22.8607 83.12 83.2067 61.222 69.8087 40.71Z"
        fill="#ECEFF2" />
    <path
        d="M37.5 22.892C37.5 23.352 37.198 23.748 36.78 23.884L27.066 27.066L23.884 36.78C23.748 37.198 23.352 37.5 22.892 37.5C22.444 37.5 22.068 37.218 21.922 36.832L13.574 14.92C13.52 14.804 13.5 14.68 13.5 14.544C13.5 13.97 13.97 13.5 14.544 13.5C14.68 13.5 14.804 13.52 14.92 13.574L36.834 21.922C37.218 22.066 37.5 22.442 37.5 22.892Z"
        fill="#F3F3F1" />
    <path
        d="M18.074 14.92C18.052 14.872 18.054 14.814 18.042 14.764L14.92 13.574C14.804 13.52 14.68 13.5 14.544 13.5C13.97 13.5 13.5 13.97 13.5 14.544C13.5 14.68 13.52 14.804 13.572 14.92L21.92 36.834C22.066 37.22 22.442 37.502 22.89 37.502C23.35 37.502 23.746 37.2 23.882 36.782L25.046 33.228L18.074 14.92Z"
        fill="#E1E6EA" />
    <path
        d="M45 58.5C52.4558 58.5 58.5 52.4558 58.5 45C58.5 37.5442 52.4558 31.5 45 31.5C37.5442 31.5 31.5 37.5442 31.5 45C31.5 52.4558 37.5442 58.5 45 58.5Z"
        fill="#2A6CEA" />
    <path
        d="M36 45C36 38.312 40.868 32.776 47.25 31.702C46.516 31.578 45.768 31.5 45 31.5C37.544 31.5 31.5 37.544 31.5 45C31.5 52.456 37.544 58.5 45 58.5C45.768 58.5 46.516 58.42 47.25 58.298C40.868 57.224 36 51.688 36 45Z"
        fill="#191C1F" fill-opacity="0.1" />
    <path d="M60.2578 25.3633L61.672 23.9491L64.5004 26.7775L63.0862 28.1917L60.2578 25.3633Z"
        fill="#C2C8CD" />
    <path d="M52.1289 17.23L53.5431 15.8158L56.3715 18.6442L54.9573 20.0584L52.1289 17.23Z"
        fill="#C2C8CD" />
    <path d="M60.6133 18.6458L63.4417 15.8173L64.8559 17.2315L62.0275 20.06L60.6133 18.6458Z"
        fill="#C2C8CD" />
    <path d="M52.4844 26.7749L55.3128 23.9465L56.727 25.3607L53.8986 28.1891L52.4844 26.7749Z"
        fill="#C2C8CD" />
    <path
        d="M49.55 51.66L44.05 47.16C43.7 46.876 43.5 46.45 43.5 46V37.5H46.5V45.29L51.45 49.34L49.55 51.66Z"
        fill="white" />
    <path
        d="M22.89 39C21.842 39 20.888 38.342 20.516 37.364L12.17 15.454C12.066 15.224 12 14.894 12 14.542C12 13.14 13.14 12 14.542 12C14.894 12 15.224 12.066 15.524 12.2L37.364 20.518C38.34 20.89 38.998 21.842 38.998 22.892C38.998 23.996 38.292 24.966 37.244 25.31L28.252 28.256L25.306 37.248C24.964 38.294 23.994 39 22.89 39ZM15.334 15.336L22.86 35.084L25.64 26.598C25.788 26.144 26.146 25.788 26.598 25.64L35.084 22.86L15.334 15.336ZM14.386 14.974C14.392 14.976 14.4 14.98 14.41 14.982L14.386 14.974ZM14.946 14.314L14.972 14.382C14.964 14.362 14.956 14.34 14.946 14.314Z"
        fill="#191C1F" />
</svg>