<svg width="72" height="72" viewBox="0 0 72 72" fill="none" xmlns="http://www.w3.org/2000/svg">
    <path
        d="M26.8199 70.094C39.4159 64.376 51.0299 66.976 57.0999 64.222C63.1699 61.466 74.3339 52.19 61.6599 24.266C48.9859 -3.65797 29.9779 0.0240283 23.2999 3.05603C-7.96413 17.244 4.50987 80.218 26.8199 70.094Z"
        fill="#ECEFF2" />
    <path
        d="M27.2959 19.7H27.1159L31.8019 15.952C32.8219 15.14 32.2419 13.5 30.9479 13.5H18.1339C16.8379 13.5 16.2599 15.14 17.2799 15.952L21.9639 19.7H21.7839C17.0159 22.496 13.1719 30.46 13.1719 36.234C13.1719 40.368 15.2379 44.5 20.0599 44.5H29.3599C34.1819 44.5 36.2479 40.366 36.2479 36.234C36.2519 30.46 32.0639 22.496 27.2959 19.7Z"
        fill="#F3F3F1" />
    <path
        d="M17.6719 36.234C17.6719 30.462 21.5159 22.498 26.2839 19.7H26.4639L21.7799 15.952C20.7599 15.14 21.3399 13.5 22.6339 13.5H18.1339C16.8379 13.5 16.2599 15.14 17.2799 15.952L21.9639 19.7H21.7839C17.0159 22.496 13.1719 30.46 13.1719 36.234C13.1719 40.368 15.2379 44.5 20.0599 44.5H24.5599C19.7379 44.5 17.6719 40.366 17.6719 36.234Z"
        fill="#E1E6EA" />
    <path
        d="M49.7197 19.7H49.5397L54.2237 15.952C55.2437 15.14 54.6637 13.5 53.3697 13.5H40.5557C39.2597 13.5 38.6818 15.14 39.7018 15.952L44.3857 19.7H44.2057C39.4377 22.496 35.5938 30.46 35.5938 36.234C35.5938 40.368 37.6598 44.5 42.4818 44.5H51.7817C56.6037 44.5 58.6697 40.366 58.6697 36.234C58.6757 30.46 54.4877 22.496 49.7197 19.7Z"
        fill="#F3F3F1" />
    <path
        d="M40.0958 36.234C40.0958 30.462 43.9398 22.498 48.7078 19.7H48.8878L44.2018 15.952C43.1818 15.14 43.7618 13.5 45.0558 13.5H40.5558C39.2598 13.5 38.6818 15.14 39.7018 15.952L44.3858 19.7H44.2058C39.4378 22.496 35.5938 30.46 35.5938 36.234C35.5938 40.368 37.6598 44.5 42.4818 44.5H46.9818C42.1638 44.5 40.0958 40.366 40.0958 36.234Z"
        fill="#E1E6EA" />
    <path
        d="M38.8369 33.7H38.6569L43.341 29.952C44.361 29.14 43.781 27.5 42.4869 27.5H29.6729C28.3769 27.5 27.7989 29.14 28.8189 29.952L33.5029 33.7H33.3229C28.5549 36.496 24.7109 44.46 24.7109 50.234C24.7109 54.368 26.7769 58.5 31.5989 58.5H40.8989C45.7209 58.5 47.787 54.366 47.787 50.234C47.791 44.46 43.6029 36.496 38.8369 33.7Z"
        fill="#2A6CEA" />
    <path
        d="M35.06 52.4C34.664 52.4 34.28 52.242 34 51.96L30 47.96L32.122 45.838L34.9 48.616L39.86 42L42.258 43.8L36.258 51.8C35.998 52.148 35.6 52.366 35.164 52.396C35.13 52.4 35.096 52.4 35.06 52.4Z"
        fill="white" />
    <path
        d="M29.2148 50.234C29.2148 44.462 33.0588 36.498 37.8268 33.7H38.0068L33.3228 29.952C32.3028 29.14 32.8828 27.5 34.1768 27.5H29.6768C28.3808 27.5 27.8028 29.14 28.8228 29.952L33.5068 33.7H33.3268C28.5588 36.496 24.7148 44.46 24.7148 50.234C24.7148 54.368 26.7808 58.5 31.6028 58.5H36.1028C31.2808 58.5 29.2148 54.366 29.2148 50.234Z"
        fill="#191C1F" fill-opacity="0.1" />
    <path d="M59.9375 54.8193L62.7659 51.9909L64.1801 53.4051L61.3517 56.2335L59.9375 54.8193Z"
        fill="#C2C8CD" />
    <path d="M51.8047 62.9485L54.6331 60.1201L56.0473 61.5343L53.2189 64.3627L51.8047 62.9485Z"
        fill="#C2C8CD" />
    <path d="M51.8047 53.0505L53.2189 51.6363L56.0473 54.4647L54.6331 55.879L51.8047 53.0505Z"
        fill="#C2C8CD" />
    <path d="M59.9336 61.1812L61.3478 59.7669L64.1762 62.5954L62.762 64.0096L59.9336 61.1812Z"
        fill="#C2C8CD" />
    <path
        d="M28.3789 20.872L26.5049 18.528L30.9169 15H18.8149L23.2269 18.528L21.3529 20.872L16.6689 17.124C15.6989 16.352 15.3389 15.094 15.7489 13.924C16.1569 12.756 17.2229 12 18.4589 12H31.2729C32.5109 12 33.5729 12.756 33.9829 13.926C34.3929 15.096 34.0309 16.352 33.0629 17.126L28.3789 20.872Z"
        fill="#191C1F" />
    <path d="M17.6328 18.2H32.0988V21.2H17.6328V18.2Z" fill="#191C1F" />
    <path
        d="M20.39 46C14.594 46 12 41.094 12 36.232C12 30.396 15.84 21.638 21.352 18.406L22.87 20.992C18.75 23.41 15 30.674 15 36.232C15 37.362 15.26 43 20.39 43V46Z"
        fill="#191C1F" />
    <path
        d="M50.6442 20.872L48.7702 18.528L53.1822 15H41.0802L45.4922 18.528L43.6182 20.872L38.9342 17.126C37.9662 16.352 37.6042 15.094 38.0142 13.924C38.4242 12.756 39.4882 12 40.7242 12H53.5382C54.7762 12 55.8382 12.756 56.2482 13.926C56.6582 15.096 56.2962 16.352 55.3282 17.126L50.6442 20.872Z"
        fill="#191C1F" />
    <path d="M39.8984 18.2H54.3644V21.2H39.8984V18.2Z" fill="#191C1F" />
    <path
        d="M51.6109 46V43C56.7389 43 56.9989 37.364 56.9989 36.232C56.9989 30.674 53.2489 23.41 49.1289 20.992L50.6469 18.406C56.1569 21.638 59.9989 30.396 59.9989 36.232C59.9989 41.094 57.4049 46 51.6109 46Z"
        fill="#191C1F" />
</svg>