<svg width="72" height="72" viewBox="0 0 72 72" fill="none" xmlns="http://www.w3.org/2000/svg">
    <path
        d="M69.8087 40.71C62.2447 29.128 63.0487 17.2561 59.4027 11.6741C55.7567 6.09205 44.8907 -3.53195 19.2167 13.2381C-6.45731 30.0081 0.0726936 48.238 4.08469 54.376C22.8607 83.12 83.2067 61.222 69.8087 40.71Z"
        fill="#ECEFF2" />
    <path d="M61.9141 42.0325L63.3283 40.6183L66.1567 43.4467L64.7425 44.8609L61.9141 42.0325Z"
        fill="#C2C8CD" />
    <path d="M53.7812 33.9028L55.1955 32.4886L58.0239 35.317L56.6097 36.7313L53.7812 33.9028Z"
        fill="#C2C8CD" />
    <path d="M62.2695 35.3269L65.098 32.4985L66.5122 33.9127L63.6837 36.7411L62.2695 35.3269Z"
        fill="#C2C8CD" />
    <path
        d="M37.9805 66.1602C36.3265 66.1602 34.9805 64.8142 34.9805 63.1602C34.9805 61.5062 36.3265 60.1602 37.9805 60.1602C39.6345 60.1602 40.9805 61.5062 40.9805 63.1602C40.9805 64.8142 39.6345 66.1602 37.9805 66.1602ZM37.9805 62.1602C37.4285 62.1602 36.9805 62.6082 36.9805 63.1602C36.9805 63.7122 37.4285 64.1602 37.9805 64.1602C38.5325 64.1602 38.9805 63.7122 38.9805 63.1602C38.9805 62.6082 38.5325 62.1602 37.9805 62.1602Z"
        fill="#C2C8CD" />
    <path d="M39.06 33.5H16.5V40.5V54.5H23.5H30.46H45.5V40.6V33.5H39.06Z" fill="#F3F3F1" />
    <path
        d="M50.5 40.5999H45.5V54.4999H47.5H54.458H58.5V48.5999C58.5 44.1819 54.918 40.5999 50.5 40.5999Z"
        fill="#2A6CEA" />
    <path
        d="M27 58.5C28.933 58.5 30.5 56.933 30.5 55C30.5 53.067 28.933 51.5 27 51.5C25.067 51.5 23.5 53.067 23.5 55C23.5 56.933 25.067 58.5 27 58.5Z"
        fill="#F3F3F1" />
    <path
        d="M51 58.5C52.933 58.5 54.5 56.933 54.5 55C54.5 53.067 52.933 51.5 51 51.5C49.067 51.5 47.5 53.067 47.5 55C47.5 56.933 49.067 58.5 51 58.5Z"
        fill="#F3F3F1" />
    <path
        d="M25 36.5C31.3513 36.5 36.5 31.3513 36.5 25C36.5 18.6487 31.3513 13.5 25 13.5C18.6487 13.5 13.5 18.6487 13.5 25C13.5 31.3513 18.6487 36.5 25 36.5Z"
        fill="#2A6CEA" />
    <path d="M21 36H16V42.3333V55H21V42.3333V36Z" fill="#E1E6EA" />
    <path d="M45.5 40.5999V54.4999H47.5H50V40.5999H45.5Z" fill="#191C1F" fill-opacity="0.1" />
    <path
        d="M28 55C28 53.928 28.492 52.982 29.25 52.34C28.64 51.824 27.862 51.5 27 51.5C25.068 51.5 23.5 53.068 23.5 55C23.5 56.932 25.068 58.5 27 58.5C27.862 58.5 28.64 58.176 29.25 57.66C28.492 57.018 28 56.072 28 55Z"
        fill="#D5DBE1" />
    <path
        d="M52 55C52 53.928 52.492 52.982 53.25 52.34C52.64 51.824 51.862 51.5 51 51.5C49.068 51.5 47.5 53.068 47.5 55C47.5 56.932 49.068 58.5 51 58.5C51.862 58.5 52.64 58.176 53.25 57.66C52.492 57.018 52 56.072 52 55Z"
        fill="#D5DBE1" />
    <path
        d="M18 25C18 19.42 21.976 14.77 27.25 13.724C26.522 13.578 25.77 13.5 25 13.5C18.648 13.5 13.5 18.648 13.5 25C13.5 31.352 18.648 36.5 25 36.5C25.77 36.5 26.522 36.422 27.25 36.276C21.976 35.23 18 30.58 18 25Z"
        fill="#191C1F" fill-opacity="0.1" />
    <path
        d="M25.0014 30.5002C24.6174 30.5002 24.2334 30.3542 23.9414 30.0602L17.9414 24.0602L20.0634 21.9382L25.0034 26.8782L29.9434 21.9382L32.0654 24.0602L26.0654 30.0602C25.7694 30.3542 25.3854 30.5002 25.0014 30.5002Z"
        fill="white" />
    <path d="M25 56.0003H16.5C15.672 56.0003 15 55.3283 15 54.5003V38.7803H18V53.0003H25V56.0003Z"
        fill="#191C1F" />
    <path
        d="M45.5009 56.0002H28.9609V53.0002H44.0009V35.0002H38.7809V32.0002H45.5009C46.3289 32.0002 47.0009 32.6722 47.0009 33.5002V54.5002C47.0009 55.3282 46.3289 56.0002 45.5009 56.0002Z"
        fill="#191C1F" />
    <path
        d="M58.5 56.0001H52.958V53.0001H57V48.6001C57 45.0161 54.084 42.1001 50.5 42.1001H47V53.0001H49V56.0001H45.5C44.672 56.0001 44 55.3281 44 54.5001V40.6001C44 39.7721 44.672 39.1001 45.5 39.1001H50.5C55.738 39.1001 60 43.3621 60 48.6001V54.5001C60 55.3281 59.328 56.0001 58.5 56.0001Z"
        fill="#191C1F" />
    <path
        d="M27 60.0003C24.244 60.0003 22 57.7562 22 55.0002C22 52.2442 24.244 50.0002 27 50.0002C29.756 50.0002 32 52.2442 32 55.0002C32 57.7562 29.756 60.0003 27 60.0003ZM27 53.0002C25.898 53.0002 25 53.8982 25 55.0002C25 56.1022 25.898 57.0002 27 57.0002C28.102 57.0002 29 56.1022 29 55.0002C29 53.8982 28.102 53.0002 27 53.0002Z"
        fill="#191C1F" />
    <path
        d="M51 60.0003C48.244 60.0003 46 57.7562 46 55.0002C46 52.2442 48.244 50.0002 51 50.0002C53.756 50.0002 56 52.2442 56 55.0002C56 57.7562 53.756 60.0003 51 60.0003ZM51 53.0002C49.898 53.0002 49 53.8982 49 55.0002C49 56.1022 49.898 57.0002 51 57.0002C52.102 57.0002 53 56.1022 53 55.0002C53 53.8982 52.102 53.0002 51 53.0002Z"
        fill="#191C1F" />
</svg>