<svg width="72" height="72" viewBox="0 0 72 72" fill="none" xmlns="http://www.w3.org/2000/svg">
    <path
        d="M8.33397 55.2461C8.33397 41.4121 1.16797 31.9121 1.16797 25.2461C1.16797 18.5801 4.99997 4.58008 35.666 4.58008C66.332 4.58008 70.832 23.4141 70.832 30.7461C70.834 65.0801 8.33397 79.7461 8.33397 55.2461Z"
        fill="#ECEFF2" />
    <path d="M53.25 16.5H55.25V20.5H53.25V16.5Z" fill="#C2C8CD" />
    <path d="M57.75 22.5H61.75V24.5H57.75V22.5Z" fill="#C2C8CD" />
    <path
        d="M42.5 48.64V17.5C42.5 15.29 40.71 13.5 38.5 13.5H17.5C15.29 13.5 13.5 15.29 13.5 17.5V48.64C13.5 50.85 15.29 52.64 17.5 52.64H38.5C40.71 52.64 42.5 50.85 42.5 48.64Z"
        fill="#F3F3F1" />
    <path
        d="M48 58.5C48 58.5 58.5 54.036 58.5 45.108C58.5 41.536 58.5 37.072 58.5 37.072L48 33.5L37.5 37.072V45.108C37.5 54.036 48 58.5 48 58.5Z"
        fill="#2A6CEA" />
    <path
        d="M18 48.64V17.5C18 15.29 19.79 13.5 22 13.5H17.5C15.29 13.5 13.5 15.29 13.5 17.5V48.64C13.5 50.85 15.29 52.64 17.5 52.64H22C19.79 52.64 18 50.85 18 48.64Z"
        fill="#E1E6EA" />
    <path
        d="M42 45.108C42 39.75 42 37.072 42 37.072L50.25 34.266L48 33.5L37.5 37.072V45.108C37.5 54.036 48 58.5 48 58.5C48 58.5 48.942 58.094 50.25 57.302C47.166 55.434 42 51.376 42 45.108Z"
        fill="#191C1F" fill-opacity="0.1" />
    <path
        d="M30.5 54H17.5C14.466 54 12 51.534 12 48.5V17.5C12 14.466 14.466 12 17.5 12H38.5C41.534 12 44 14.466 44 17.5V28.5H41V17.5C41 16.122 39.878 15 38.5 15H17.5C16.122 15 15 16.122 15 17.5V48.5C15 49.878 16.122 51 17.5 51H30.5V54Z"
        fill="#191C1F" />
    <path
        d="M20.5614 37.5599L18.4414 35.4399L23.4414 30.4399C23.9194 29.9599 24.6574 29.8619 25.2454 30.1979L27.7914 31.6539L33.4834 26.3999L35.5194 28.6059L29.0194 34.6059C28.5374 35.0499 27.8234 35.1299 27.2574 34.8059L24.7514 33.3739L20.5614 37.5599Z"
        fill="#191C1F" />
    <path d="M36 34H33V29H28V26H34.5C35.328 26 36 26.672 36 27.5V34Z" fill="#191C1F" />
    <path
        d="M47.5014 50.9999C47.1054 50.9999 46.7214 50.8419 46.4414 50.5599L42.4414 46.5599L44.5634 44.4379L47.3414 47.2159L52.3014 40.5999L54.6994 42.3999L48.6994 50.3999C48.4394 50.7479 48.0414 50.9658 47.6054 50.9958C47.5714 50.9998 47.5374 50.9999 47.5014 50.9999Z"
        fill="white" />
</svg>